<svg width="1024" height="1024" viewBox="0 0 1024 1024" xmlns="http://www.w3.org/2000/svg">
    <defs>
        <filter id="shadow">
            <feDropShadow dx="0" dy="4" stdDeviation="8" flood-opacity="0.3"/>
        </filter>
    </defs>
    
    <!-- Sun rays - 12 rays total, 4 long (12,3,6,9) and 8 short -->
    <g transform="translate(512, 512)">
        <!-- Long rays at 12, 3, 6, 9 positions -->
        <rect x="-20" y="-410" width="40" height="120" rx="20" fill="#FFEB3B"/>
        <rect x="290" y="-20" width="120" height="40" rx="20" fill="#FFEB3B"/>
        <rect x="-20" y="290" width="40" height="120" rx="20" fill="#FFEB3B"/>
        <rect x="-410" y="-20" width="120" height="40" rx="20" fill="#FFEB3B"/>
        
        <!-- Short rays at 1, 2, 4, 5, 7, 8, 10, 11 o'clock positions -->
        <rect x="-18" y="-380" width="36" height="90" rx="18" fill="#FFEB3B" transform="rotate(30)"/>
        <rect x="-18" y="-380" width="36" height="90" rx="18" fill="#FFEB3B" transform="rotate(60)"/>
        <rect x="-18" y="-380" width="36" height="90" rx="18" fill="#FFEB3B" transform="rotate(120)"/>
        <rect x="-18" y="-380" width="36" height="90" rx="18" fill="#FFEB3B" transform="rotate(150)"/>
        <rect x="-18" y="-380" width="36" height="90" rx="18" fill="#FFEB3B" transform="rotate(210)"/>
        <rect x="-18" y="-380" width="36" height="90" rx="18" fill="#FFEB3B" transform="rotate(240)"/>
        <rect x="-18" y="-380" width="36" height="90" rx="18" fill="#FFEB3B" transform="rotate(300)"/>
        <rect x="-18" y="-380" width="36" height="90" rx="18" fill="#FFEB3B" transform="rotate(330)"/>
    </g>
    
    <!-- Sun circle (main body) -->
    <circle cx="512" cy="512" r="260" fill="#FFEB3B" filter="url(#shadow)"/>
    <circle cx="512" cy="512" r="250" fill="#FFF176" opacity="0.5"/>
</svg>
